<?xml version="1.0" encoding="utf-8"?>
<!-- Generator: Adobe Illustrator 17.1.0, SVG Export Plug-In . SVG Version: 6.00 Build 0)  -->
<!DOCTYPE svg PUBLIC "-//W3C//DTD SVG 1.1//EN" "http://www.w3.org/Graphics/SVG/1.1/DTD/svg11.dtd">
<svg version="1.1" id="Layer_1" xmlns="http://www.w3.org/2000/svg" xmlns:xlink="http://www.w3.org/1999/xlink" x="0px" y="0px"
	 viewBox="0 0 256 256" enable-background="new 0 0 256 256" xml:space="preserve">
<path fill="#D97155" stroke="#D97155" stroke-width="0.8596" d="M187.873,91.295v86.898c0,7.897-6.402,14.294-14.298,14.294H82.443
	c-7.893,0-14.291-6.396-14.291-14.294V91.295"/>
<path fill="#E7C091" d="M36.179,158.236c0,7.398,5.997,13.389,13.391,13.389c7.395,0,13.392-5.991,13.392-13.389v-56.081
	c0-7.393-5.997-13.39-13.392-13.39c-7.394,0-13.391,5.997-13.391,13.39V158.236z"/>
<path fill="#D97155" d="M92.183,222.15c0,7.398,5.995,13.392,13.39,13.392s13.389-5.993,13.389-13.392v-32.084
	c0-7.394-5.994-13.39-13.389-13.39s-13.39,5.996-13.39,13.39V222.15z"/>
<line fill="none" stroke="#E7C091" stroke-width="3.722" stroke-linecap="round" stroke-linejoin="round" x1="90.72" y1="20.458" x2="101.265" y2="39.687"/>
<path fill="#E7C091" d="M219.821,158.236c0,7.398-5.992,13.389-13.389,13.389c-7.395,0-13.391-5.991-13.391-13.389v-56.081
	c0-7.394,5.996-13.39,13.391-13.39c7.396,0,13.389,5.996,13.389,13.39L219.821,158.236L219.821,158.236z"/>
<path fill="#D97155" d="M163.821,222.15c0,7.398-5.997,13.392-13.391,13.392c-7.395,0-13.39-5.993-13.39-13.392v-32.084
	c0-7.394,5.995-13.39,13.39-13.39c7.394,0,13.391,5.996,13.391,13.39V222.15z"/>
<path fill="#E7C091" d="M127.973,31.296c-33.311,0-60.315,24.771-60.315,55.325h120.636
	C188.294,56.067,161.289,31.296,127.973,31.296z M100.545,64.78c-2.792,0-5.053-2.261-5.053-5.053c0-2.79,2.262-5.053,5.053-5.053
	c2.787,0,5.052,2.263,5.052,5.053C105.597,62.519,103.332,64.78,100.545,64.78z M155.459,64.78c-2.79,0-5.055-2.261-5.055-5.053
	c0-2.79,2.265-5.053,5.055-5.053c2.788,0,5.051,2.263,5.051,5.053C160.51,62.519,158.247,64.78,155.459,64.78z"/>
<line fill="none" stroke="#E7C091" stroke-width="3.722" stroke-linecap="round" stroke-linejoin="round" x1="165.283" y1="20.458" x2="154.738" y2="39.687"/>
</svg>
