<?xml version="1.0" encoding="utf-8"?>
<!-- Generator: Adobe Illustrator 17.1.0, SVG Export Plug-In . SVG Version: 6.00 Build 0)  -->
<!DOCTYPE svg PUBLIC "-//W3C//DTD SVG 1.1//EN" "http://www.w3.org/Graphics/SVG/1.1/DTD/svg11.dtd">
<svg version="1.1" id="Layer_1" xmlns="http://www.w3.org/2000/svg" xmlns:xlink="http://www.w3.org/1999/xlink" x="0px" y="0px"
	 viewBox="0 0 256 256" enable-background="new 0 0 256 256" xml:space="preserve">
<path fill="#D97155" stroke="#D97155" stroke-width="0.8596" d="M215.879,237.151l-86.898,0c-7.897,0-14.294-6.402-14.294-14.298
	v-91.132c0-7.893,6.396-14.291,14.294-14.291h86.898"/>
<path fill="#D97155" d="M79.197,219.868c-2.14,7.082,1.865,14.554,8.944,16.692c7.079,2.139,14.55-1.864,16.69-8.947l9.28-30.713
	c2.139-7.078-1.865-14.551-8.944-16.69c-7.079-2.139-14.552,1.867-16.69,8.945L79.197,219.868z"/>
<line fill="none" stroke="#E7C091" stroke-width="3.722" stroke-linecap="round" stroke-linejoin="round" x1="186.588" y1="97.672" x2="197.133" y2="116.901"/>
<path fill="#E7C091" d="M163.82,237.136c-7.398,0-13.389-5.992-13.389-13.389c0-7.395,5.991-13.391,13.389-13.391h56.081
	c7.394,0,13.39,5.996,13.39,13.391c0,7.396-5.996,13.389-13.39,13.389L163.82,237.136L163.82,237.136z"/>
<path fill="#D97155" d="M173.711,75.515c6.343-3.807,14.569-1.751,18.374,4.589c3.806,6.34,1.753,14.565-4.591,18.373
	l-27.509,16.512c-6.34,3.805-14.566,1.751-18.372-4.589c-3.805-6.34-1.751-14.567,4.589-18.373L173.711,75.515z"/>
<path fill="#E7C091" d="M89.736,208.577c26.473-20.219,32.899-56.295,14.354-80.577L8.217,201.222
	C26.763,225.504,63.259,228.799,89.736,208.577z M91.211,165.319c2.219-1.695,5.388-1.27,7.083,0.949
	c1.693,2.217,1.269,5.389-0.949,7.083c-2.215,1.692-5.389,1.268-7.082-0.949C88.568,170.182,88.996,167.011,91.211,165.319z
	 M47.569,198.65c2.217-1.693,5.39-1.271,7.084,0.948c1.693,2.217,1.267,5.391-0.95,7.084c-2.216,1.692-5.388,1.267-7.081-0.95
	C44.927,203.512,45.353,200.342,47.569,198.65z"/>
<line fill="none" stroke="#E7C091" stroke-width="3.722" stroke-linecap="round" stroke-linejoin="round" x1="197.133" y1="97.672" x2="186.588" y2="116.901"/>
<path fill="#E7C091" d="M45.21,210.368c-7.398,0.003-13.386,6.003-13.383,13.397c0.003,7.395,5.997,13.389,13.395,13.386
	l56.081-0.026c7.393-0.003,13.387-6.003,13.384-13.398c-0.003-7.394-6.003-13.388-13.396-13.385L45.21,210.368z"/>
</svg>
