<?xml version="1.0" encoding="utf-8"?>
<!-- Generator: Adobe Illustrator 17.1.0, SVG Export Plug-In . SVG Version: 6.00 Build 0)  -->
<!DOCTYPE svg PUBLIC "-//W3C//DTD SVG 1.1//EN" "http://www.w3.org/Graphics/SVG/1.1/DTD/svg11.dtd">
<svg version="1.1" id="Layer_1" xmlns="http://www.w3.org/2000/svg" xmlns:xlink="http://www.w3.org/1999/xlink" x="0px" y="0px"
	 viewBox="0 0 256 256" enable-background="new 0 0 256 256" xml:space="preserve">
<path fill="#D97155" stroke="#D97155" stroke-width="0.8596" d="M183.844,148.234v86.898c0,7.897-6.402,14.294-14.298,14.294H78.414
	c-7.893,0-14.291-6.396-14.291-14.294v-86.898"/>
<line fill="none" stroke="#E7C091" stroke-width="3.722" stroke-linecap="round" stroke-linejoin="round" x1="70.333" y1="64.662" x2="80.878" y2="83.891"/>
<g>
	<path fill="#E7C091" d="M157.061,131.842c0,7.398,5.997,13.389,13.391,13.389c7.395,0,13.392-5.991,13.392-13.389V75.761
		c0-7.393-5.997-13.39-13.392-13.39c-7.394,0-13.391,5.997-13.391,13.39V131.842z"/>
	<path fill="#E7C091" d="M152.227,131.842c0,7.398-5.992,13.389-13.389,13.389c-7.395,0-13.391-5.991-13.391-13.389V75.761
		c0-7.394,5.996-13.39,13.391-13.39c7.396,0,13.389,5.996,13.389,13.39L152.227,131.842L152.227,131.842z"/>
</g>
<g>
	<path fill="#D97155" d="M62.216,131.839c0,7.398,5.995,13.392,13.39,13.392s13.389-5.993,13.389-13.392V99.755
		c0-7.394-5.994-13.39-13.389-13.39s-13.39,5.996-13.39,13.39V131.839z"/>
	<path fill="#D97155" d="M120.612,131.839c0,7.398-5.997,13.392-13.391,13.392c-7.395,0-13.39-5.993-13.39-13.392V99.755
		c0-7.394,5.995-13.39,13.39-13.39c7.394,0,13.391,5.996,13.391,13.39V131.839z"/>
</g>
<path fill="#E7C091" d="M125.444,3.546c-33.311,0-60.315,24.771-60.315,55.325h120.636C185.765,28.317,158.76,3.546,125.444,3.546z
	 M98.016,37.03c-2.792,0-5.053-2.261-5.053-5.053c0-2.79,2.262-5.053,5.053-5.053c2.787,0,5.052,2.263,5.052,5.053
	C103.068,34.769,100.803,37.03,98.016,37.03z M152.93,37.03c-2.79,0-5.055-2.261-5.055-5.053c0-2.79,2.265-5.053,5.055-5.053
	c2.788,0,5.051,2.263,5.051,5.053C157.981,34.769,155.718,37.03,152.93,37.03z"/>
<line fill="none" stroke="#E7C091" stroke-width="3.722" stroke-linecap="round" stroke-linejoin="round" x1="112.494" y1="64.662" x2="101.949" y2="83.891"/>
</svg>
